<svg width="20" height="14" viewBox="0 0 20 14" fill="none" xmlns="http://www.w3.org/2000/svg">
<path fill-rule="evenodd" clip-rule="evenodd" d="M19.8214 1.53978C19.4556 1.19314 19.1526 1.16667 15.5533 1.16667L12.198 1.16667L12.198 1.93601L12.198 2.70543L15.7787 2.68341L19.3596 2.66146L19.6801 2.42331C20.0483 2.14988 20.1031 1.80658 19.8214 1.53978ZM19.8473 6.64344C19.585 6.32946 19.2789 6.27616 17.7203 6.27339L16.2642 6.27083L16.2642 7L16.2642 7.72917L17.6877 7.72917C18.5573 7.72917 19.2233 7.69526 19.3993 7.64203C19.9275 7.48242 20.1443 6.99898 19.8473 6.64344ZM19.6801 11.5767L19.3594 11.3385L13.9654 11.3183L8.57133 11.2981L8.57133 12.0657L8.57133 12.8333L13.6541 12.8329C16.7986 12.8327 18.8921 12.8039 19.144 12.7575C19.999 12.5999 20.266 12.0119 19.6801 11.5767ZM14.8826 5.1458C14.7452 5.05466 14.4457 5.03125 13.4161 5.03125C11.8247 5.03125 11.7584 5.06144 11.7584 5.78441L11.7584 6.27083L6.32359 6.27083C0.488142 6.27083 0.446382 6.27338 0.155924 6.64599C-0.042332 6.90032 -0.042332 7.09968 0.155924 7.35401C0.446382 7.72661 0.488142 7.72917 6.32359 7.72917L11.7584 7.72917L11.7584 8.23543C11.7584 8.92741 11.8553 8.96875 13.4784 8.96875C14.4514 8.96875 14.7461 8.94469 14.8826 8.8542C15.1412 8.68255 15.1412 5.31745 14.8826 5.1458ZM10.8704 0.127604C10.7729 0.0166246 10.5756 -4.11952e-07 9.3571 -4.65216e-07C8.41385 -5.06447e-07 7.91282 0.0285829 7.82403 0.0874995C7.74732 0.138395 7.69215 0.382375 7.69215 0.670833L7.69215 1.16667L4.39171 1.16667C0.851355 1.16667 0.543642 1.19394 0.178562 1.53978C-0.103106 1.80658 -0.0482656 2.14987 0.319891 2.42331L0.64035 2.66146L4.16631 2.68348L7.69215 2.7055L7.69215 3.19754C7.69215 3.48301 7.74754 3.72633 7.82403 3.77708C7.91282 3.836 8.41418 3.86458 9.35875 3.86458C10.6332 3.86458 10.7719 3.85168 10.8753 3.72356C11.0264 3.53624 11.0219 0.30027 10.8704 0.127604ZM7.23058 10.2229C7.14244 10.1644 6.65351 10.1354 5.75477 10.1354C4.11872 10.1354 4.06553 10.1572 4.06553 10.8282L4.06553 11.2918L2.35289 11.3152L0.640131 11.3385L0.31978 11.5767C-0.265975 12.0119 0.0010771 12.5999 0.85597 12.7575C1.07994 12.7988 1.89373 12.8327 2.66433 12.8329L4.06553 12.8333L4.06553 13.3021C4.06553 13.9789 4.11663 14 5.75477 14C6.65351 14 7.14244 13.971 7.23058 13.9125C7.41796 13.7882 7.41796 10.3472 7.23058 10.2229Z" fill="white"/>
</svg>
