<svg width="23" height="22" viewBox="0 0 23 22" fill="none" xmlns="http://www.w3.org/2000/svg">
<path d="M16.5824 13.7275H15.5949L15.2449 13.3964C16.4699 11.9983 17.2074 10.1833 17.2074 8.20885C17.2074 3.80616 13.5699 0.237411 9.0824 0.237411C4.5949 0.237411 0.957397 3.80616 0.957397 8.20885C0.957397 12.6115 4.5949 16.1803 9.0824 16.1803C11.0949 16.1803 12.9449 15.4567 14.3699 14.2549L14.7074 14.5983V15.5671L20.9574 21.6867L22.8199 19.8594L16.5824 13.7275ZM9.0824 13.7275C5.9699 13.7275 3.4574 11.2625 3.4574 8.20885C3.4574 5.15517 5.9699 2.69016 9.0824 2.69016C12.1949 2.69016 14.7074 5.15517 14.7074 8.20885C14.7074 11.2625 12.1949 13.7275 9.0824 13.7275Z" fill="#9C9C9C"/>
</svg>
